<?xml version="1.0" encoding="utf-8"?>
<!-- Generator: Adobe Illustrator 16.0.0, SVG Export Plug-In . SVG Version: 6.00 Build 0)  -->
<!DOCTYPE svg PUBLIC "-//W3C//DTD SVG 1.1//EN" "http://www.w3.org/Graphics/SVG/1.1/DTD/svg11.dtd">
<svg version="1.1" id="Layer_1" xmlns="http://www.w3.org/2000/svg" xmlns:xlink="http://www.w3.org/1999/xlink" x="0px" y="0px"
	 width="792.552px" height="192.226px" viewBox="0 0 792.552 192.226" enable-background="new 0 0 792.552 192.226"
	 xml:space="preserve">
<path fill="#4CA0D4" d="M127.506,62.041h0.014H127.506z"/>
<path fill="#4CA0D4" d="M127.506,62.041h0.014H127.506z M127.506,62.041h0.014H127.506z"/>
<path fill="#4CA0D4" d="M127.518,62.04"/>
<path fill="#4CA0D4" d="M127.518,62.04"/>
<path fill="#4CA0D4" d="M127.518,62.04"/>
<rect x="110.387" y="38.73" fill="#82BC00" width="9.049" height="48.276"/>
<path fill="#82BC00" d="M131.399,54.26l-0.007,0.018l-3.876,7.762c9.115,4.621,15.397,14.099,15.397,24.966
	c0,15.418-12.592,28.014-28.009,28.014c-15.404,0-27.993-12.596-27.993-28.014c0-10.917,6.334-20.423,15.495-25.029l-0.056-0.021
	l-3.956-7.678C86.449,60.339,78.201,72.76,78.201,87.006c0,20.197,16.524,36.712,36.703,36.712
	c20.188,0,36.712-16.516,36.712-36.712C151.616,72.76,143.368,60.325,131.399,54.26"/>
<path fill="#555759" d="M205.297,114.418l-0.028-10.388h-0.154c-0.714,1.763-1.756,3.386-3.145,4.879
	c-1.371,1.479-2.956,2.738-4.715,3.75c-1.77,1.025-3.669,1.818-5.68,2.389c-2.029,0.573-4.03,0.851-6.009,0.851
	c-4.173,0-7.808-0.759-10.878-2.27c-3.095-1.54-5.645-3.614-7.708-6.279c-2.061-2.651-3.579-5.727-4.565-9.22
	c-0.997-3.509-1.487-7.198-1.487-11.081c0-3.896,0.49-7.587,1.487-11.088c0.986-3.498,2.504-6.583,4.565-9.238
	c2.053-2.644,4.613-4.75,7.691-6.303c3.088-1.546,6.713-2.33,10.896-2.33c2.046,0,4.04,0.242,5.995,0.734
	c1.938,0.497,3.771,1.263,5.453,2.281c1.703,1.025,3.208,2.291,4.516,3.781c1.312,1.483,2.33,3.208,3.029,5.188h0.185V38.756h6.618
	v75.663H205.297z M168.563,95.5c0.676,2.788,1.729,5.271,3.187,7.465c1.459,2.189,3.316,3.977,5.572,5.345
	c2.267,1.374,5.009,2.06,8.185,2.06c3.544,0,6.537-0.686,8.986-2.06c2.431-1.368,4.421-3.155,5.939-5.345
	c1.525-2.193,2.637-4.677,3.302-7.465c0.672-2.794,1.011-5.586,1.011-8.422c0-2.823-0.339-5.617-1.011-8.409
	c-0.665-2.781-1.777-5.274-3.302-7.457c-1.519-2.193-3.508-3.966-5.939-5.348c-2.449-1.364-5.442-2.071-8.986-2.071
	c-3.175,0-5.918,0.707-8.185,2.071c-2.256,1.382-4.113,3.155-5.572,5.348c-1.458,2.183-2.511,4.676-3.187,7.457
	c-0.678,2.792-1.007,5.586-1.007,8.409C167.556,89.914,167.885,92.705,168.563,95.5"/>
<path fill="#555759" d="M221.737,96.328c0.675,2.563,1.763,4.896,3.236,6.946c1.468,2.043,3.354,3.735,5.61,5.079
	c2.259,1.35,4.974,2.018,8.16,2.018c4.869,0,8.692-1.256,11.431-3.809c2.76-2.536,4.677-5.943,5.722-10.193h6.635
	c-1.413,6.237-4.012,11.047-7.771,14.437c-3.781,3.402-9.119,5.096-16.017,5.096c-4.299,0-8.023-0.763-11.154-2.273
	c-3.134-1.536-5.687-3.613-7.667-6.275c-1.973-2.651-3.438-5.726-4.39-9.224c-0.935-3.508-1.427-7.195-1.427-11.081
	c0-3.61,0.493-7.139,1.427-10.605c0.952-3.47,2.417-6.562,4.39-9.276c1.969-2.732,4.533-4.925,7.653-6.59
	c3.131-1.654,6.852-2.486,11.147-2.486c4.369,0,8.108,0.884,11.2,2.665c3.106,1.752,5.628,4.064,7.562,6.929
	c1.927,2.868,3.327,6.148,4.166,9.86c0.856,3.708,1.207,7.475,1.056,11.287h-41.973C220.734,91.242,221.073,93.729,221.737,96.328
	 M254.767,75.873c-0.821-2.309-1.962-4.358-3.438-6.135c-1.487-1.798-3.289-3.232-5.408-4.312c-2.112-1.084-4.509-1.63-7.198-1.63
	c-2.746,0-5.18,0.545-7.296,1.63c-2.12,1.081-3.914,2.515-5.394,4.312c-1.49,1.777-2.679,3.848-3.543,6.198
	c-0.896,2.34-1.469,4.736-1.756,7.177h35.341C256.012,80.602,255.578,78.185,254.767,75.873"/>
<path fill="#555759" d="M271.516,59.693v9.209h0.34c1.77-3.386,4.078-6.037,6.933-7.95c2.858-1.903,6.509-2.861,10.955-2.861
	c3.588,0,6.866,0.885,9.79,2.665c2.938,1.752,4.89,4.439,5.884,8.048c1.62-3.609,4.019-6.296,7.202-8.048
	c3.172-1.78,6.565-2.665,10.157-2.665c12.071,0,18.115,6.408,18.115,19.199v37.128h-6.628v-36.75c0-4.508-0.952-7.958-2.861-10.326
	c-1.917-2.354-5.268-3.546-10.077-3.546c-2.9,0-5.316,0.546-7.206,1.644c-1.917,1.095-3.453,2.557-4.575,4.396
	c-1.131,1.836-1.924,3.935-2.383,6.303c-0.469,2.364-0.696,4.816-0.696,7.355v30.923h-6.625V77.367c0-1.847-0.196-3.596-0.581-5.261
	c-0.395-1.651-1.039-3.099-1.916-4.34c-0.875-1.231-2.078-2.193-3.561-2.911c-1.477-0.703-3.281-1.06-5.405-1.06
	c-2.833,0-5.282,0.521-7.376,1.539c-2.085,1.021-3.792,2.431-5.097,4.236c-1.294,1.801-2.273,3.907-2.906,6.355
	c-0.647,2.441-0.955,5.1-0.955,7.989v30.503h-6.631V59.693H271.516z"/>
<path fill="#555759" d="M347.387,68.254c1.13-2.329,2.641-4.253,4.593-5.764c1.941-1.497,4.204-2.603,6.814-3.326
	c2.605-0.714,5.495-1.074,8.674-1.074c2.372,0,4.777,0.22,7.174,0.692c2.392,0.458,4.533,1.33,6.439,2.602
	c1.907,1.266,3.459,3.05,4.652,5.358c1.2,2.288,1.795,5.279,1.795,8.948v29.073c0,2.683,1.318,4.026,3.924,4.026
	c0.78,0,1.479-0.133,2.126-0.423v5.62c-0.77,0.133-1.473,0.241-2.063,0.314c-0.609,0.081-1.368,0.116-2.302,0.116
	c-1.675,0-3.026-0.228-4.037-0.683c-1.015-0.476-1.798-1.123-2.357-1.976c-0.56-0.843-0.934-1.851-1.116-3.012
	c-0.157-1.179-0.245-2.466-0.245-3.883h-0.216c-1.196,1.781-2.414,3.351-3.659,4.715c-1.242,1.385-2.609,2.532-4.134,3.463
	c-1.515,0.906-3.246,1.623-5.198,2.102c-1.927,0.498-4.246,0.756-6.933,0.756c-2.542,0-4.935-0.304-7.152-0.912
	c-2.225-0.588-4.173-1.55-5.827-2.854c-1.672-1.294-2.973-2.97-3.928-4.975c-0.958-2.007-1.434-4.382-1.434-7.142
	c0-3.816,0.846-6.796,2.543-8.944c1.7-2.151,3.945-3.795,6.729-4.928c2.788-1.123,5.946-1.927,9.427-2.386
	c3.498-0.455,7.051-0.895,10.647-1.325c1.409-0.137,2.651-0.318,3.717-0.532c1.036-0.209,1.931-0.591,2.641-1.108
	c0.696-0.521,1.252-1.255,1.641-2.175c0.388-0.914,0.584-2.103,0.584-3.589c0-2.263-0.374-4.12-1.112-5.558
	c-0.739-1.462-1.756-2.595-3.064-3.459c-1.315-0.843-2.822-1.424-4.571-1.742c-1.721-0.308-3.565-0.476-5.555-0.476
	c-4.225,0-7.688,1.014-10.371,3.025c-2.679,2.011-4.089,5.243-4.229,9.696h-6.635C345.576,73.333,346.258,70.583,347.387,68.254
	 M380.693,84.498c-0.42,0.776-1.235,1.343-2.441,1.71c-1.2,0.346-2.271,0.595-3.18,0.738c-2.827,0.483-5.747,0.934-8.748,1.329
	c-3.022,0.374-5.761,0.969-8.223,1.739c-2.473,0.78-4.513,1.889-6.107,3.344s-2.378,3.515-2.378,6.202
	c0,1.696,0.321,3.196,0.996,4.505c0.679,1.314,1.582,2.444,2.711,3.396c1.126,0.955,2.435,1.673,3.931,2.17
	c1.473,0.504,2.998,0.741,4.561,0.741c2.551,0,4.967-0.382,7.314-1.154c2.333-0.78,4.375-1.917,6.1-3.403
	c1.735-1.483,3.113-3.281,4.144-5.4c1.015-2.127,1.533-4.526,1.533-7.209v-8.706H380.693z"/>
<path fill="#555759" d="M401.736,59.693v9.423h0.204c1.259-3.327,3.536-5.988,6.775-8.009c3.259-1.998,6.837-3.015,10.724-3.015
	c3.812,0,7.02,0.507,9.601,1.483c2.578,0.989,4.635,2.385,6.184,4.194c1.574,1.805,2.677,4.012,3.303,6.624
	c0.65,2.62,0.955,5.555,0.955,8.804v35.222h-6.618V80.326c0-2.333-0.213-4.498-0.654-6.523c-0.419-2.005-1.157-3.76-2.217-5.233
	c-1.063-1.494-2.498-2.647-4.299-3.512c-1.806-0.829-4.055-1.263-6.755-1.263c-2.682,0-5.075,0.476-7.159,1.42
	c-2.099,0.965-3.861,2.274-5.31,3.932c-1.448,1.665-2.575,3.63-3.406,5.932c-0.812,2.298-1.256,4.778-1.327,7.458v31.881h-6.606
	V59.693H401.736z"/>
<path fill="#555759" d="M486.079,114.418l-0.028-10.388h-0.161c-0.71,1.763-1.752,3.386-3.131,4.879
	c-1.392,1.479-2.959,2.738-4.732,3.75c-1.763,1.025-3.669,1.818-5.684,2.389c-2.015,0.573-4.019,0.851-5.988,0.851
	c-4.193,0-7.807-0.759-10.902-2.291c-3.078-1.519-5.642-3.593-7.688-6.258c-2.054-2.651-3.589-5.727-4.562-9.22
	c-1.011-3.509-1.511-7.198-1.511-11.081c0-3.896,0.5-7.587,1.496-11.088c0.987-3.498,2.522-6.583,4.576-9.238
	c2.046-2.644,4.609-4.75,7.688-6.303c3.071-1.546,6.705-2.33,10.878-2.33c2.05,0,4.058,0.242,6.002,0.734
	c1.945,0.497,3.764,1.263,5.467,2.281c1.693,1.025,3.187,2.291,4.516,3.781c1.306,1.483,2.312,3.208,3.026,5.188h0.178V38.756h6.625
	v75.663H486.079z M449.341,95.5c0.672,2.788,1.738,5.271,3.187,7.465c1.458,2.189,3.309,3.977,5.572,5.345
	c2.28,1.374,5.008,2.06,8.177,2.06c3.544,0,6.541-0.686,8.976-2.06c2.445-1.368,4.449-3.155,5.964-5.345
	c1.525-2.193,2.613-4.677,3.291-7.465c0.672-2.794,1.011-5.586,1.011-8.422c0-2.823-0.339-5.617-1.011-8.409
	c-0.678-2.781-1.766-5.274-3.291-7.46c-1.515-2.19-3.519-3.963-5.964-5.345c-2.435-1.364-5.432-2.071-8.976-2.071
	c-3.169,0-5.896,0.707-8.177,2.071c-2.264,1.382-4.114,3.155-5.572,5.345c-1.448,2.186-2.515,4.68-3.187,7.46
	c-0.665,2.792-1.004,5.586-1.004,8.409C448.337,89.914,448.676,92.705,449.341,95.5"/>
<polygon fill="#82BC00" points="501.381,59.741 515.385,106.587 515.592,106.587 528.951,59.741 536.478,59.741 549.843,106.587 
	550.055,106.587 564.05,59.741 571.148,59.741 553.554,114.418 546.244,114.418 532.777,68.43 532.56,68.43 519.195,114.418 
	511.878,114.418 494.295,59.741 "/>
<path fill="#82BC00" d="M570.948,68.254c1.134-2.329,2.655-4.253,4.601-5.764c1.934-1.497,4.204-2.603,6.807-3.326
	c2.615-0.714,5.509-1.074,8.685-1.074c2.389,0,4.771,0.22,7.174,0.692c2.389,0.458,4.547,1.33,6.436,2.602
	c1.913,1.266,3.466,3.05,4.656,5.358c1.195,2.288,1.779,5.279,1.779,8.948v29.073c0,2.683,1.326,4.026,3.936,4.026
	c0.779,0,1.497-0.133,2.116-0.423v5.62c-0.784,0.133-1.448,0.241-2.063,0.314c-0.599,0.081-1.351,0.116-2.271,0.116
	c-1.686,0-3.047-0.228-4.054-0.683c-1.008-0.476-1.809-1.123-2.365-1.976c-0.562-0.843-0.912-1.851-1.094-3.012
	c-0.176-1.179-0.256-2.466-0.256-3.883h-0.213c-1.2,1.781-2.414,3.351-3.655,4.715c-1.234,1.385-2.62,2.532-4.135,3.463
	c-1.524,0.906-3.263,1.623-5.205,2.102c-1.937,0.498-4.263,0.756-6.953,0.756c-2.529,0-4.911-0.304-7.146-0.912
	c-2.229-0.588-4.17-1.55-5.827-2.854c-1.645-1.294-2.97-2.97-3.929-4.975c-0.94-2.007-1.42-4.382-1.42-7.142
	c0-3.816,0.84-6.796,2.529-8.944c1.714-2.151,3.945-3.795,6.74-4.928c2.777-1.123,5.925-1.927,9.426-2.386
	c3.505-0.455,7.052-0.895,10.647-1.325c1.42-0.137,2.651-0.318,3.707-0.532c1.058-0.209,1.948-0.591,2.642-1.108
	c0.713-0.521,1.255-1.255,1.641-2.175c0.398-0.914,0.587-2.103,0.587-3.589c0-2.263-0.367-4.12-1.108-5.558
	c-0.734-1.462-1.767-2.595-3.071-3.459c-1.301-0.843-2.833-1.424-4.551-1.742c-1.738-0.308-3.574-0.476-5.567-0.476
	c-4.226,0-7.679,1.014-10.367,3.025c-2.673,2.011-4.093,5.243-4.232,9.696h-6.636C569.14,73.333,569.826,70.583,570.948,68.254
	 M604.264,84.498c-0.427,0.776-1.234,1.343-2.444,1.71c-1.2,0.346-2.25,0.595-3.177,0.738c-2.832,0.483-5.757,0.934-8.754,1.329
	c-3.016,0.374-5.744,0.969-8.225,1.739c-2.476,0.78-4.518,1.889-6.092,3.344c-1.616,1.455-2.386,3.515-2.386,6.202
	c0,1.696,0.318,3.196,1,4.505c0.675,1.314,1.581,2.444,2.718,3.396c1.119,0.955,2.435,1.673,3.911,2.17
	c1.485,0.504,3.001,0.741,4.563,0.741c2.547,0,4.98-0.382,7.314-1.154c2.344-0.78,4.361-1.917,6.104-3.403
	c1.731-1.483,3.109-3.281,4.131-5.4c1.032-2.127,1.542-4.526,1.542-7.209v-8.706H604.264z"/>
<path fill="#82BC00" d="M625.117,59.701v12.83h0.227c1.693-4.463,4.338-7.884,7.909-10.287c3.567-2.399,7.81-3.494,12.787-3.291
	v6.628c-3.057-0.133-5.799,0.273-8.293,1.225c-2.469,0.955-4.6,2.308-6.407,4.096c-1.809,1.745-3.194,3.861-4.185,6.303
	c-0.989,2.438-1.489,5.106-1.489,8.01v29.157h-6.618v-54.67H625.117z"/>
<path fill="#82BC00" d="M649.379,96.328c0.682,2.563,1.756,4.896,3.225,6.946c1.479,2.043,3.357,3.735,5.617,5.079
	c2.253,1.35,4.98,2.018,8.157,2.018c4.864,0,8.691-1.256,11.434-3.809c2.753-2.536,4.663-5.943,5.716-10.193h6.628
	c-1.402,6.237-4.005,11.047-7.762,14.437c-3.784,3.402-9.104,5.096-16.016,5.096c-4.31,0-8.031-0.763-11.165-2.291
	c-3.142-1.519-5.688-3.596-7.653-6.258c-1.983-2.651-3.442-5.726-4.379-9.224c-0.97-3.508-1.448-7.195-1.448-11.081
	c0-3.61,0.479-7.139,1.448-10.605c0.937-3.47,2.396-6.562,4.379-9.276c1.966-2.732,4.512-4.925,7.653-6.59
	c3.134-1.654,6.845-2.486,11.144-2.486c4.375,0,8.098,0.884,11.189,2.665c3.109,1.752,5.635,4.064,7.569,6.929
	c1.934,2.868,3.315,6.148,4.176,9.86c0.825,3.708,1.196,7.475,1.053,11.287h-41.99C648.354,91.242,648.71,93.729,649.379,96.328
	 M682.394,75.873c-0.822-2.309-1.952-4.358-3.441-6.135c-1.487-1.798-3.271-3.232-5.397-4.312c-2.115-1.084-4.509-1.63-7.198-1.63
	c-2.753,0-5.167,0.545-7.307,1.63c-2.099,1.081-3.917,2.515-5.394,4.312c-1.465,1.777-2.665,3.848-3.537,6.198
	c-0.887,2.34-1.468,4.736-1.766,7.177h35.365C683.65,80.602,683.199,78.185,682.394,75.873"/>
<path fill="#82BC00" d="M688.136,59.985c0,0.93-0.73,1.658-1.679,1.658c-0.94,0-1.689-0.728-1.689-1.658
	c0-0.91,0.749-1.641,1.689-1.641C687.406,58.344,688.136,59.075,688.136,59.985 M685.184,59.985c0,0.728,0.542,1.308,1.28,1.308
	c0.722,0,1.252-0.58,1.252-1.297c0-0.731-0.53-1.318-1.259-1.318C685.726,58.677,685.184,59.264,685.184,59.985 M686.195,60.845
	h-0.381v-1.641c0.15-0.031,0.36-0.049,0.634-0.049c0.307,0,0.447,0.049,0.569,0.119c0.088,0.07,0.157,0.199,0.157,0.36
	c0,0.178-0.139,0.318-0.339,0.378v0.021c0.161,0.06,0.252,0.182,0.301,0.398c0.05,0.252,0.08,0.354,0.119,0.413h-0.409
	c-0.05-0.06-0.081-0.21-0.129-0.402c-0.032-0.179-0.131-0.259-0.34-0.259h-0.183V60.845z M686.206,59.915h0.182
	c0.211,0,0.378-0.07,0.378-0.241c0-0.147-0.107-0.248-0.349-0.248c-0.103,0-0.172,0.01-0.211,0.018V59.915z"/>
<path fill="#555759" d="M342.955,141.479c0-0.335,0.133-0.503,0.502-0.503h4.593c0.335,0,0.469,0.168,0.503,0.503l0.269,1.944
	c1.173-1.911,3.084-2.816,5.062-2.816c2.414,0,4.023,1.007,4.761,2.95c1.307-2.111,3.286-2.95,5.263-2.95
	c3.386,0,5.196,1.911,5.196,5.699v8.616h1.911c0.335,0,0.503,0.167,0.503,0.503v1.642c0,0.369-0.168,0.504-0.503,0.504h-7.375
	c-0.335,0-0.502-0.167-0.502-0.504v-1.642c0-0.369,0.167-0.503,0.502-0.503h1.71v-6.939c0-2.381-0.235-4.057-2.883-4.057
	c-1.979,0-3.386,1.408-3.386,2.916v8.08h1.609c0.335,0,0.503,0.167,0.503,0.503v1.642c0,0.369-0.167,0.504-0.503,0.504h-6.873
	c-0.335,0-0.502-0.167-0.502-0.504v-1.642c0-0.369,0.167-0.503,0.502-0.503h1.509v-6.939c0-2.381-0.234-4.057-2.883-4.057
	c-2.112,0-3.419,1.643-3.419,3.285v7.711h2.045c0.368,0,0.502,0.167,0.502,0.503v1.642c0,0.369-0.167,0.504-0.502,0.504h-7.577
	c-0.335,0-0.503-0.167-0.503-0.504v-1.642c0-0.369,0.168-0.503,0.503-0.503h1.776v-11.198h-1.81c-0.335,0-0.502-0.133-0.502-0.502
	V141.479z"/>
<path fill="#555759" d="M381.172,140.607c2.615,0,7.542,0.805,7.542,8.214c0,6.269-3.62,9.151-8.079,9.151
	c-4.56,0-7.409-2.748-7.409-8.447C373.227,142.451,377.954,140.607,381.172,140.607z M384.792,149.291
	c0-3.755-1.04-5.935-3.922-5.935c-2.782,0-3.855,2.18-3.855,5.432c0,2.983,0.57,6.437,3.922,6.437
	C383.686,155.224,384.792,153.145,384.792,149.291z"/>
<path fill="#555759" d="M397.966,153.849l3.52-10.125h-1.71c-0.335,0-0.503-0.167-0.503-0.502v-1.743
	c0-0.369,0.168-0.503,0.503-0.503h4.895c0.536,0,0.805,0.503,0.604,1.006l-5.732,15.119c-0.101,0.335-0.335,0.47-0.67,0.47h-2.884
	c-0.335,0-0.537-0.135-0.671-0.47l-4.592-13.377h-1.676c-0.335,0-0.503-0.167-0.503-0.502v-1.743c0-0.369,0.168-0.503,0.503-0.503
	h4.392c0.335,0,0.536,0.134,0.637,0.47L397.966,153.849z"/>
<path fill="#555759" d="M406.448,149.256c0-4.425,2.413-8.649,7.677-8.649c5.129,0,6.538,4.19,6.538,7.812
	c0,0.302,0,0.737-0.034,1.14c-0.033,0.402-0.101,0.536-0.604,0.536h-9.855c0.2,2.85,1.105,5.063,4.727,5.063
	c1.508,0,2.581-0.336,3.788-0.873c0.335-0.168,0.536-0.066,0.67,0.269l0.638,1.542c0.134,0.336,0,0.503-0.302,0.671
	c-1.173,0.638-3.219,1.206-5.532,1.206C408.593,157.972,406.448,154.352,406.448,149.256z M417.142,147.614
	c0.033-2.012-0.536-4.19-3.285-4.19c-2.917,0-3.621,2.414-3.688,4.19H417.142z"/>
<path fill="#555759" d="M432.028,154.922h3.553c0.369,0,0.504,0.167,0.504,0.503v1.642c0,0.369-0.168,0.504-0.504,0.504h-9.386
	c-0.336,0-0.504-0.167-0.504-0.504v-1.642c0-0.369,0.168-0.503,0.504-0.503h2.078v-11.231h-2.078c-0.336,0-0.504-0.168-0.504-0.502
	v-1.71c0-0.369,0.168-0.503,0.504-0.503h2.078v-3.252c0-2.749,0.771-5.599,5.129-5.599c1.743,0,3.319,0.57,3.923,0.838
	c0.301,0.134,0.369,0.302,0.269,0.637l-0.504,1.677c-0.101,0.268-0.268,0.368-0.569,0.235c-0.302-0.136-1.308-0.604-2.381-0.604
	c-1.978,0-2.111,1.207-2.111,3.62v2.448h4.057c0.335,0,0.503,0.168,0.503,0.503v1.71c0,0.368-0.168,0.502-0.503,0.502h-4.057
	V154.922z"/>
<path fill="#555759" d="M447.518,146.44c0-1.608-0.269-3.251-2.918-3.251c-2.111,0-2.748,0.938-3.017,2.146
	c-0.066,0.302-0.201,0.503-0.503,0.503h-2.146c-0.335,0-0.503-0.168-0.469-0.503c0.2-3.487,3.218-4.728,6.671-4.728
	c4.794,0,6.001,2.548,6.001,5.498v8.817h1.441c0.335,0,0.503,0.167,0.503,0.503v1.642c0,0.369-0.168,0.504-0.503,0.504h-3.956
	c-0.335,0-0.469-0.167-0.503-0.504l-0.234-1.541c-1.207,1.643-2.85,2.446-5.229,2.446c-2.549,0-4.962-1.173-4.962-4.726
	c0-5.432,6.068-5.565,9.823-5.633V146.44z M447.584,149.927c-2.716,0.033-6.336,0.033-6.336,2.984c0,1.575,0.871,2.312,2.648,2.312
	c2.48,0,3.688-1.441,3.688-2.716V149.927z"/>
<path fill="#555759" d="M465.888,141.21c0.369,0.101,0.47,0.235,0.47,0.604v3.554c0,0.335-0.168,0.503-0.503,0.503h-1.945
	c-0.335,0-0.502-0.134-0.436-0.503l0.168-1.71c-0.569-0.302-1.374-0.536-2.213-0.536c-1.476,0-2.682,0.436-2.682,1.878
	c0,3.553,8.481,1.475,8.481,7.576c0,3.352-2.447,5.396-6.771,5.396c-1.945,0-3.855-0.436-4.728-0.669
	c-0.368-0.101-0.436-0.269-0.436-0.638v-3.554c0-0.336,0.167-0.503,0.503-0.503h1.944c0.335,0,0.503,0.135,0.47,0.503l-0.101,1.743
	c0.536,0.402,1.508,0.671,2.581,0.671c1.576,0,2.983-0.402,2.983-2.112c0-3.989-8.348-1.441-8.348-7.645
	c0-2.814,2.28-5.162,6.403-5.162C463.575,140.607,465.151,140.976,465.888,141.21z"/>
<path fill="#555759" d="M474.236,152.173c0,1.877,0.269,2.984,2.012,2.984c0.871,0,1.441-0.202,2.045-0.47
	c0.269-0.101,0.402-0.067,0.536,0.268l0.604,1.543c0.135,0.334,0,0.502-0.302,0.67c-0.938,0.47-2.548,0.804-3.822,0.804
	c-4.827,0-4.827-3.251-4.827-6.168v-8.08h-1.911c-0.335,0-0.502-0.167-0.502-0.502v-1.743c0-0.369,0.167-0.503,0.502-0.503h1.911
	v-4.526c0-0.335,0.135-0.502,0.503-0.502h2.749c0.335,0,0.503,0.167,0.503,0.502v4.526h3.386c0.336,0,0.503,0.168,0.503,0.503v1.743
	c0,0.369-0.167,0.502-0.503,0.502h-3.386V152.173z"/>
<path fill="#555759" d="M479.735,149.256c0-4.425,2.414-8.649,7.678-8.649c5.129,0,6.537,4.19,6.537,7.812
	c0,0.302,0,0.737-0.034,1.14c-0.033,0.402-0.1,0.536-0.604,0.536h-9.855c0.201,2.85,1.106,5.063,4.727,5.063
	c1.509,0,2.582-0.336,3.788-0.873c0.335-0.168,0.536-0.066,0.671,0.269l0.637,1.542c0.134,0.336,0,0.503-0.302,0.671
	c-1.173,0.638-3.218,1.206-5.531,1.206C481.881,157.972,479.735,154.352,479.735,149.256z M490.429,147.614
	c0.034-2.012-0.536-4.19-3.285-4.19c-2.917,0-3.621,2.414-3.688,4.19H490.429z"/>
<path fill="#555759" d="M508.6,140.875c0.369,0.134,0.402,0.269,0.402,0.604v4.525c0,0.369-0.168,0.503-0.503,0.503h-2.18
	c-0.335,0-0.502-0.134-0.469-0.503l0.134-1.944c-0.167-0.033-0.402-0.033-0.57-0.033c-2.011,0-3.553,1.742-3.553,4.626v6.27h3.688
	c0.335,0,0.503,0.167,0.503,0.503v1.642c0,0.369-0.168,0.504-0.503,0.504h-9.22c-0.335,0-0.503-0.167-0.503-0.504v-1.642
	c0-0.369,0.168-0.503,0.503-0.503h1.777v-11.198h-1.811c-0.335,0-0.503-0.167-0.503-0.502v-1.743c0-0.369,0.134-0.503,0.503-0.503
	h4.425c0.336,0,0.503,0.168,0.57,0.503l0.369,2.381c0.67-1.609,2.38-3.253,4.794-3.253
	C507.192,140.607,508.298,140.774,508.6,140.875z"/>
<path fill="#555759" d="M512.22,162.432c-0.268,0.436-0.436,0.502-0.905,0.268l-0.2-0.067c-0.47-0.234-0.536-0.368-0.369-0.871
	l1.207-3.554c-0.503-0.604-1.308-1.375-1.308-2.614c0-1.208,0.871-2.213,2.414-2.213c1.575,0,2.548,0.838,2.548,2.347
	c0,1.24-0.637,2.313-1.542,3.788L512.22,162.432z"/>
<path fill="#555759" d="M541.32,155.626c0,0.637-0.034,2.514-0.168,3.989c-0.335,3.688-2.648,6.001-7.408,6.001
	c-2.649,0-4.66-0.638-5.499-1.006c-0.335-0.134-0.368-0.335-0.268-0.671l0.603-1.776c0.101-0.336,0.336-0.402,0.671-0.269
	c0.738,0.302,2.348,0.838,4.09,0.838c2.716,0,4.225-1.006,4.225-4.56v-2.614c-1.006,1.644-2.783,2.413-4.962,2.413
	c-4.023,0-6.537-2.814-6.537-8.213c0-6.57,3.353-9.152,7.208-9.152c2.146,0,3.755,0.905,4.861,2.18l0.335-1.308
	c0.101-0.335,0.268-0.503,0.603-0.503h4.091c0.335,0,0.503,0.168,0.503,0.503v1.743c0,0.369-0.168,0.502-0.503,0.502h-1.844V155.626
	z M537.565,145.334c0,0-1.24-1.777-3.721-1.777c-2.146,0-3.99,1.375-3.99,5.599c0,3.386,0.604,5.934,3.922,5.934
	c1.811,0,3.789-1.374,3.789-3.787V145.334z"/>
<path fill="#555759" d="M557.646,140.875c0.369,0.134,0.403,0.269,0.403,0.604v4.525c0,0.369-0.168,0.503-0.504,0.503h-2.179
	c-0.336,0-0.503-0.134-0.469-0.503l0.133-1.944c-0.167-0.033-0.401-0.033-0.569-0.033c-2.012,0-3.554,1.742-3.554,4.626v6.27h3.688
	c0.335,0,0.503,0.167,0.503,0.503v1.642c0,0.369-0.168,0.504-0.503,0.504h-9.219c-0.335,0-0.503-0.167-0.503-0.504v-1.642
	c0-0.369,0.168-0.503,0.503-0.503h1.776v-11.198h-1.811c-0.335,0-0.502-0.167-0.502-0.502v-1.743c0-0.369,0.133-0.503,0.502-0.503
	h4.426c0.335,0,0.502,0.168,0.57,0.503l0.368,2.381c0.671-1.609,2.381-3.253,4.794-3.253
	C556.239,140.607,557.344,140.774,557.646,140.875z"/>
<path fill="#555759" d="M567.4,140.607c2.615,0,7.543,0.805,7.543,8.214c0,6.269-3.62,9.151-8.079,9.151
	c-4.56,0-7.408-2.748-7.408-8.447C559.456,142.451,564.182,140.607,567.4,140.607z M571.021,149.291c0-3.755-1.04-5.935-3.923-5.935
	c-2.782,0-3.855,2.18-3.855,5.432c0,2.983,0.57,6.437,3.923,6.437C569.915,155.224,571.021,153.145,571.021,149.291z"/>
<path fill="#555759" d="M584.062,153.448l3.319-12.002c0.101-0.336,0.302-0.47,0.637-0.47h2.682c0.369,0,0.536,0.134,0.638,0.47
	l3.419,12.068l2.984-9.79h-1.609c-0.336,0-0.503-0.167-0.503-0.502v-1.743c0-0.369,0.167-0.503,0.503-0.503h4.291
	c0.57,0,0.805,0.436,0.67,0.905l-4.626,15.22c-0.101,0.335-0.302,0.47-0.637,0.47h-3.017c-0.336,0-0.537-0.135-0.638-0.504
	l-3.186-11.834l-3.318,11.868c-0.101,0.335-0.302,0.47-0.638,0.47h-3.017c-0.335,0-0.536-0.135-0.637-0.47l-3.654-13.377h-1.743
	c-0.335,0-0.503-0.167-0.503-0.502v-1.743c0-0.369,0.168-0.503,0.503-0.503h4.392c0.335,0,0.536,0.134,0.637,0.503L584.062,153.448z
	"/>
<path fill="#555759" d="M611.992,154.922h3.553c0.369,0,0.504,0.167,0.504,0.503v1.642c0,0.369-0.168,0.504-0.504,0.504h-9.386
	c-0.336,0-0.504-0.167-0.504-0.504v-1.642c0-0.369,0.168-0.503,0.504-0.503h2.078v-11.231h-2.078c-0.336,0-0.504-0.168-0.504-0.502
	v-1.71c0-0.369,0.168-0.503,0.504-0.503h2.078v-3.252c0-2.749,0.771-5.599,5.129-5.599c1.743,0,3.319,0.57,3.923,0.838
	c0.302,0.134,0.369,0.302,0.269,0.637l-0.504,1.677c-0.1,0.268-0.268,0.368-0.569,0.235c-0.302-0.136-1.308-0.604-2.381-0.604
	c-1.978,0-2.111,1.207-2.111,3.62v2.448h4.057c0.335,0,0.503,0.168,0.503,0.503v1.71c0,0.368-0.168,0.502-0.503,0.502h-4.057
	V154.922z"/>
<path fill="#555759" d="M627.476,146.44c0-1.608-0.269-3.251-2.917-3.251c-2.111,0-2.748,0.938-3.017,2.146
	c-0.067,0.302-0.201,0.503-0.503,0.503h-2.146c-0.335,0-0.503-0.168-0.47-0.503c0.201-3.487,3.219-4.728,6.672-4.728
	c4.794,0,6.001,2.548,6.001,5.498v8.817h1.441c0.335,0,0.503,0.167,0.503,0.503v1.642c0,0.369-0.168,0.504-0.503,0.504h-3.956
	c-0.335,0-0.47-0.167-0.503-0.504l-0.235-1.541c-1.206,1.643-2.849,2.446-5.229,2.446c-2.549,0-4.962-1.173-4.962-4.726
	c0-5.432,6.067-5.565,9.822-5.633V146.44z M627.543,149.927c-2.716,0.033-6.336,0.033-6.336,2.984c0,1.575,0.871,2.312,2.648,2.312
	c2.48,0,3.688-1.441,3.688-2.716V149.927z"/>
<path fill="#555759" d="M645.847,141.21c0.369,0.101,0.47,0.235,0.47,0.604v3.554c0,0.335-0.168,0.503-0.504,0.503h-1.944
	c-0.335,0-0.502-0.134-0.436-0.503l0.168-1.71c-0.57-0.302-1.375-0.536-2.213-0.536c-1.476,0-2.682,0.436-2.682,1.878
	c0,3.553,8.481,1.475,8.481,7.576c0,3.352-2.447,5.396-6.771,5.396c-1.945,0-3.855-0.436-4.728-0.669
	c-0.369-0.101-0.436-0.269-0.436-0.638v-3.554c0-0.336,0.167-0.503,0.503-0.503h1.944c0.335,0,0.503,0.135,0.47,0.503l-0.101,1.743
	c0.536,0.402,1.508,0.671,2.581,0.671c1.575,0,2.983-0.402,2.983-2.112c0-3.989-8.348-1.441-8.348-7.645
	c0-2.814,2.279-5.162,6.403-5.162C643.534,140.607,645.109,140.976,645.847,141.21z"/>
<path fill="#555759" d="M654.195,152.173c0,1.877,0.269,2.984,2.012,2.984c0.871,0,1.44-0.202,2.045-0.47
	c0.269-0.101,0.401-0.067,0.536,0.268l0.604,1.543c0.135,0.334,0,0.502-0.302,0.67c-0.938,0.47-2.548,0.804-3.822,0.804
	c-4.827,0-4.827-3.251-4.827-6.168v-8.08h-1.911c-0.335,0-0.502-0.167-0.502-0.502v-1.743c0-0.369,0.167-0.503,0.502-0.503h1.911
	v-4.526c0-0.335,0.134-0.502,0.503-0.502h2.749c0.335,0,0.503,0.167,0.503,0.502v4.526h3.386c0.336,0,0.503,0.168,0.503,0.503v1.743
	c0,0.369-0.167,0.502-0.503,0.502h-3.386V152.173z"/>
<path fill="#555759" d="M659.696,149.256c0-4.425,2.413-8.649,7.677-8.649c5.129,0,6.537,4.19,6.537,7.812
	c0,0.302,0,0.737-0.033,1.14c-0.034,0.402-0.101,0.536-0.604,0.536h-9.856c0.201,2.85,1.106,5.063,4.728,5.063
	c1.508,0,2.581-0.336,3.788-0.873c0.335-0.168,0.536-0.066,0.67,0.269l0.638,1.542c0.134,0.336,0,0.503-0.303,0.671
	c-1.173,0.638-3.218,1.206-5.531,1.206C661.841,157.972,659.696,154.352,659.696,149.256z M670.39,147.614
	c0.033-2.012-0.536-4.19-3.286-4.19c-2.916,0-3.62,2.414-3.688,4.19H670.39z"/>
<path fill="#555759" d="M688.56,140.875c0.369,0.134,0.403,0.269,0.403,0.604v4.525c0,0.369-0.168,0.503-0.504,0.503h-2.18
	c-0.335,0-0.502-0.134-0.469-0.503l0.134-1.944c-0.167-0.033-0.401-0.033-0.569-0.033c-2.012,0-3.554,1.742-3.554,4.626v6.27h3.688
	c0.335,0,0.503,0.167,0.503,0.503v1.642c0,0.369-0.168,0.504-0.503,0.504h-9.219c-0.335,0-0.503-0.167-0.503-0.504v-1.642
	c0-0.369,0.168-0.503,0.503-0.503h1.776v-11.198h-1.811c-0.335,0-0.502-0.167-0.502-0.502v-1.743c0-0.369,0.133-0.503,0.502-0.503
	h4.426c0.335,0,0.502,0.168,0.57,0.503l0.368,2.381c0.671-1.609,2.381-3.253,4.794-3.253
	C687.153,140.607,688.258,140.774,688.56,140.875z"/>
</svg>
